<svg xmlns="http://www.w3.org/2000/svg" xmlns:xlink="http://www.w3.org/1999/xlink" width="500" zoomAndPan="magnify" viewBox="0 0 375 374.999991" height="500" preserveAspectRatio="xMidYMid meet" version="1.0"><defs><g/></defs><rect x="-37.5" width="450" fill="#ffffff" y="-37.499999" height="449.999989" fill-opacity="1"/><rect x="-37.5" width="450" fill="#fffefa" y="-37.499999" height="449.999989" fill-opacity="1"/><g fill="#425948" fill-opacity="1"><g transform="translate(11.10974, 220.678806)"><g><path d="M 7.953125 0 L 7.953125 -63.140625 L 21.328125 -63.140625 L 21.328125 0 Z M 7.953125 0 "/></g></g></g><g fill="#425948" fill-opacity="1"><g transform="translate(40.392471, 220.678806)"><g><path d="M 65.265625 -31.65625 C 65.265625 -21.207031 62.671875 -13.175781 57.484375 -7.5625 C 52.304688 -1.945312 44.878906 0.859375 35.203125 0.859375 C 25.523438 0.859375 18.09375 -1.945312 12.90625 -7.5625 C 7.726562 -13.175781 5.140625 -21.238281 5.140625 -31.75 C 5.140625 -42.257812 7.738281 -50.285156 12.9375 -55.828125 C 18.132812 -61.367188 25.582031 -64.140625 35.28125 -64.140625 C 44.988281 -64.140625 52.410156 -61.34375 57.546875 -55.75 C 62.691406 -50.164062 65.265625 -42.132812 65.265625 -31.65625 Z M 19.171875 -31.65625 C 19.171875 -24.601562 20.507812 -19.289062 23.1875 -15.71875 C 25.863281 -12.144531 29.867188 -10.359375 35.203125 -10.359375 C 45.878906 -10.359375 51.21875 -17.457031 51.21875 -31.65625 C 51.21875 -45.882812 45.90625 -53 35.28125 -53 C 29.957031 -53 25.941406 -51.203125 23.234375 -47.609375 C 20.523438 -44.023438 19.171875 -38.707031 19.171875 -31.65625 Z M 19.171875 -31.65625 "/></g></g></g><g fill="#425948" fill-opacity="1"><g transform="translate(110.791953, 220.678806)"><g><path d="M 32.3125 0 L 18.921875 0 L 18.921875 -52 L 1.765625 -52 L 1.765625 -63.140625 L 49.453125 -63.140625 L 49.453125 -52 L 32.3125 -52 Z M 32.3125 0 "/></g></g></g><g fill="#425948" fill-opacity="1"><g transform="translate(162.015137, 220.678806)"><g/></g></g><g fill="#425948" fill-opacity="1"><g transform="translate(184.992146, 220.678806)"><g><path d="M 44.3125 0 L 7.953125 0 L 7.953125 -63.140625 L 44.3125 -63.140625 L 44.3125 -52.171875 L 21.328125 -52.171875 L 21.328125 -38.3125 L 42.71875 -38.3125 L 42.71875 -27.34375 L 21.328125 -27.34375 L 21.328125 -11.0625 L 44.3125 -11.0625 Z M 44.3125 0 "/></g></g></g><g fill="#425948" fill-opacity="1"><g transform="translate(234.530936, 220.678806)"><g><path d="M 63.96875 0 L 46.953125 0 L 19.484375 -47.765625 L 19.09375 -47.765625 C 19.632812 -39.328125 19.90625 -33.3125 19.90625 -29.71875 L 19.90625 0 L 7.953125 0 L 7.953125 -63.140625 L 24.828125 -63.140625 L 52.265625 -15.84375 L 52.5625 -15.84375 C 52.132812 -24.050781 51.921875 -29.851562 51.921875 -33.25 L 51.921875 -63.140625 L 63.96875 -63.140625 Z M 63.96875 0 "/></g></g></g><g fill="#425948" fill-opacity="1"><g transform="translate(306.442076, 220.678806)"><g><path d="M 43.96875 -63.140625 L 57.484375 -63.140625 L 36.015625 0 L 21.421875 0 L 0 -63.140625 L 13.515625 -63.140625 L 25.390625 -25.5625 C 26.054688 -23.351562 26.738281 -20.769531 27.4375 -17.8125 C 28.144531 -14.863281 28.585938 -12.8125 28.765625 -11.65625 C 29.078125 -14.3125 30.15625 -18.945312 32 -25.5625 Z M 43.96875 -63.140625 "/></g></g></g></svg>